<svg xmlns="http://www.w3.org/2000/svg" xmlns:xlink="http://www.w3.org/1999/xlink" width="192.888" height="583" viewBox="0 0 192.888 583">
  <defs>
    <clipPath id="clip-path">
      <rect id="Rectangle_275" data-name="Rectangle 275" width="192.888" height="583" fill="none"/>
    </clipPath>
  </defs>
  <g id="Group_150" data-name="Group 150" clip-path="url(#clip-path)">
    <path id="Path_1295" data-name="Path 1295" d="M175.106,384.065A55.66,55.66,0,1,0,96.444,305.4a55.66,55.66,0,1,0-78.662,78.661,55.661,55.661,0,1,0,78.662,78.662,55.661,55.661,0,1,0,78.662-78.662m-37.915,86.95A46.274,46.274,0,0,1,93.457,439.68q1.483.079,2.987.081a55.436,55.436,0,0,0,36.164-13.39c.617.168,1.234.331,1.847.491V443.7a8.148,8.148,0,0,1-7.341-7.541h-6.532c.136,7.137,5.792,11.852,13.873,12.592V454.2h3.636v-5.454c9.158-.606,13.873-7,13.873-13.266,0-9.359-7.206-11.313-13.873-13v-1.5a56.029,56.029,0,0,0,6.536-9.043,7.5,7.5,0,0,1,.2.909h6.533a12.706,12.706,0,0,0-3.388-7.673,55.373,55.373,0,0,0,4.171-21.118c0-1-.03-2-.083-2.985a46.2,46.2,0,0,1-14.867,89.935m-127.7-46.2A46.1,46.1,0,0,1,25.373,390a55.361,55.361,0,0,0,17,7.392,55.4,55.4,0,0,0,1.949,6.279,12.042,12.042,0,0,0-5.3,10.2c0,9.292,7.206,11.247,13.939,13V443.7a8.146,8.146,0,0,1-7.339-7.541H39.088c.134,7.137,5.792,11.852,13.871,12.592V454.2H56.6v-5.454c9.158-.606,13.873-7,13.873-13.266a15.451,15.451,0,0,0-.176-2.261,55.308,55.308,0,0,0,12.826,4.918,55.376,55.376,0,0,0,7.392,17A46.172,46.172,0,0,1,9.494,424.814m0-81.5a46.2,46.2,0,0,1,89.935-14.867c-.989-.053-1.984-.083-2.985-.083a55.444,55.444,0,0,0-36.366,13.565c-1.15-.346-2.323-.65-3.482-.943V324.56a8.243,8.243,0,0,1,6.734,6.8h6.532c-.674-6.8-5.589-11.313-13.266-11.986v-5.59H52.96v5.59c-8.417.538-13.939,5.724-13.939,13,0,9.291,7.206,11.245,13.939,13v3.954a55.931,55.931,0,0,0-6,9.239,8.664,8.664,0,0,1-1.335-3.9H39.088a11.68,11.68,0,0,0,5.269,9.7,55.409,55.409,0,0,0-3.611,19.7c0,1,.03,2,.083,2.987A46.274,46.274,0,0,1,9.494,343.318m127.7-46.2a46.171,46.171,0,0,1,30.324,81.016,55.39,55.39,0,0,0-17-7.391,55.077,55.077,0,0,0-2.471-7.6,12.767,12.767,0,0,0,3.918-9.154c0-9.359-7.206-11.313-13.873-13V324.56a8.244,8.244,0,0,1,6.734,6.8h6.532c-.674-6.8-5.589-11.313-13.266-11.986v-5.59h-3.636v5.59c-8.417.538-13.939,5.724-13.939,13,0,.528.03,1.027.075,1.508a55.28,55.28,0,0,0-10.821-3.889,55.427,55.427,0,0,0-7.392-17,46.1,46.1,0,0,1,34.813-15.879m.9,130.758c4.309,1.28,7.743,3.166,7.743,7.947,0,4.039-2.76,7.407-7.743,7.945Zm-91.439-18.9a55.878,55.878,0,0,0,6.307,9.832v2.665c-4.309-1.347-7.677-3.164-7.677-7.945a7.45,7.45,0,0,1,1.37-4.552m6.307-69c-4.309-1.345-7.677-3.164-7.677-7.944s3.166-7.206,7.677-7.61Zm73.819-7.944c0-4.782,3.166-7.206,7.677-7.61V339.98c-4.309-1.345-7.677-3.164-7.677-7.944M145.272,357.3a55.951,55.951,0,0,0-7.18-10.163v-.762c4.309,1.28,7.743,3.166,7.743,7.947a8.046,8.046,0,0,1-.563,2.979m-2.626,26.762a46.2,46.2,0,1,1-46.2-46.2,46.255,46.255,0,0,1,46.2,46.2M56.6,427.873c4.309,1.279,7.745,3.166,7.745,7.947,0,4.039-2.762,7.407-7.745,7.945Z" transform="translate(0 102.491)" fill="#00ae83"/>
    <path id="Path_1296" data-name="Path 1296" d="M90.259,377.155c0-9.359-7.2-11.312-13.871-13V347.729a8.238,8.238,0,0,1,6.733,6.8h6.532c-.673-6.8-5.588-11.313-13.265-11.986v-5.589H72.751v5.589c-8.417.538-13.939,5.724-13.939,13,0,9.292,7.2,11.245,13.939,13v16.836a8.15,8.15,0,0,1-7.341-7.543H58.878c.136,7.137,5.792,11.852,13.873,12.594v5.454h3.636v-5.454c9.158-.608,13.871-7,13.871-13.268m-13.871,8.283V369.545c4.309,1.28,7.743,3.166,7.743,7.947,0,4.039-2.76,7.407-7.743,7.945m-3.636-37.845v15.556c-4.309-1.347-7.677-3.166-7.677-7.945s3.164-7.206,7.677-7.61" transform="translate(20.957 120.07)" fill="#00ae83"/>
    <path id="Path_1297" data-name="Path 1297" d="M86.35,111.393a55.7,55.7,0,1,0-55.7-55.7,55.759,55.759,0,0,0,55.7,55.7m0-101.9a46.2,46.2,0,1,1-46.2,46.2A46.254,46.254,0,0,1,86.35,9.5" transform="translate(10.924 0)" fill="#00ae83"/>
    <path id="Path_1298" data-name="Path 1298" d="M74.7,51.113V67.544a8.243,8.243,0,0,1-6.734-6.8H61.433c.674,6.8,5.589,11.313,13.266,11.986v5.589h3.636V72.728c8.417-.538,13.939-5.724,13.939-13,0-9.292-7.206-11.247-13.939-13V29.9a8.147,8.147,0,0,1,7.339,7.543h6.532c-.134-7.137-5.792-11.852-13.871-12.592V19.395H74.7V24.85c-9.158.606-13.873,7-13.873,13.266,0,9.359,7.206,11.313,13.873,13m3.636,1.01c4.309,1.347,7.677,3.164,7.677,7.945s-3.166,7.2-7.677,7.609ZM74.7,29.833V45.726c-4.309-1.28-7.745-3.166-7.745-7.947,0-4.039,2.762-7.407,7.745-7.945" transform="translate(21.675 6.911)" fill="#00ae83"/>
    <path id="Path_1299" data-name="Path 1299" d="M36.531,229.4a4.749,4.749,0,0,0,0,4.747L76.482,303.33a4.746,4.746,0,0,0,8.221,0l11.174-19.35a4.747,4.747,0,1,0-8.222-4.747l-7.062,12.23L48.866,236.519H66.285a4.747,4.747,0,0,0,4.747-4.747V115.578a4.747,4.747,0,1,0-9.494,0V227.025h-20.9a4.747,4.747,0,0,0-4.111,2.374" transform="translate(12.791 39.494)" fill="#00ae83"/>
    <path id="Path_1300" data-name="Path 1300" d="M75.9,209.429a4.747,4.747,0,0,0,4.747,4.747H98.066l-13.3,23.037a4.747,4.747,0,1,0,8.221,4.747L110.4,211.8a4.747,4.747,0,0,0-4.111-7.121h-20.9v-26.4a4.747,4.747,0,0,0-9.494,0Z" transform="translate(27.046 61.837)" fill="#00ae83"/>
    <path id="Path_1301" data-name="Path 1301" d="M75.9,164.5a4.747,4.747,0,0,0,9.494,0v-6.459a4.747,4.747,0,0,0-9.494,0Z" transform="translate(27.046 54.625)" fill="#00ae83"/>
    <path id="Path_1302" data-name="Path 1302" d="M80.645,151.793a4.747,4.747,0,0,0,4.747-4.747V127.339a4.747,4.747,0,0,0-9.494,0v19.706a4.747,4.747,0,0,0,4.747,4.747" transform="translate(27.046 43.685)" fill="#00ae83"/>
    <path id="Path_1303" data-name="Path 1303" d="M112.82,93.919a4.747,4.747,0,1,0-9.494,0V222.556a4.748,4.748,0,0,0,4.747,4.747H139.4L75.255,336.631l-15.43-26.723a4.747,4.747,0,0,0-8.222,4.747l19.51,33.785a4.745,4.745,0,0,0,4.093,2.374h.016a4.749,4.749,0,0,0,4.095-2.344l72.467-123.512a4.748,4.748,0,0,0-4.095-7.149H112.82Z" transform="translate(18.161 31.776)" fill="#00ae83"/>
    <path id="Path_1304" data-name="Path 1304" d="M54.254,276.878a4.747,4.747,0,0,0,8.3-4.609L26.737,207.794H57.253A4.746,4.746,0,0,0,62,203.047V148.663a4.747,4.747,0,0,0-9.494,0V198.3H18.669a4.748,4.748,0,0,0-4.15,7.054Z" transform="translate(4.961 51.283)" fill="#00ae83"/>
    <path id="Path_1305" data-name="Path 1305" d="M42.37,136.823a4.747,4.747,0,0,0,9.494,0V125.548a4.747,4.747,0,0,0-9.494,0Z" transform="translate(15.098 43.046)" fill="#00ae83"/>
    <path id="Path_1306" data-name="Path 1306" d="M47.117,117.1a4.747,4.747,0,0,0,4.747-4.747V101.622a4.747,4.747,0,0,0-9.494,0v10.726a4.747,4.747,0,0,0,4.747,4.747" transform="translate(15.098 34.521)" fill="#00ae83"/>
  </g>
</svg>
