<svg xmlns="http://www.w3.org/2000/svg" xmlns:xlink="http://www.w3.org/1999/xlink" width="271" height="273" viewBox="0 0 271 273">
  <defs>
    <clipPath id="clip-path">
      <rect id="Rectangle_177" data-name="Rectangle 177" width="148.813" height="100.175" fill="#00ae83"/>
    </clipPath>
    <filter id="Ellipse_47" x="0" y="0" width="104" height="104" filterUnits="userSpaceOnUse">
      <feOffset dy="3" input="SourceAlpha"/>
      <feGaussianBlur stdDeviation="3" result="blur"/>
      <feFlood flood-opacity="0.161"/>
      <feComposite operator="in" in2="blur"/>
      <feComposite in="SourceGraphic"/>
    </filter>
  </defs>
  <g id="Group_154" data-name="Group 154" transform="translate(-814 -4534)">
    <circle id="Ellipse_44" data-name="Ellipse 44" cx="131" cy="131" r="131" transform="translate(823 4545)" fill="#dbdbdb"/>
    <g id="Group_111" data-name="Group 111" transform="translate(879.593 4625.913)">
      <g id="Group_110" data-name="Group 110" clip-path="url(#clip-path)">
        <path id="Path_1132" data-name="Path 1132" d="M146.431,25.356,74.208.2a3.554,3.554,0,0,0-2.325,0L7.65,22.35a3.55,3.55,0,0,0,.012,6.716l16.375,5.585a41.925,41.925,0,0,0-9,20.7,7.363,7.363,0,0,0-4.756,6.779,7.441,7.441,0,0,0,5.789,7.111C14.811,72.4,13,76.675,10.969,80.656c0,.007-3.95,5.685-6.556,4.582s-6.649,2.7-2.88,6.452c0,0,8.466,10.481,16.932,8.145,7.544-2.081,8.6-22.47,4.811-32.259a7.166,7.166,0,0,0,2.55-5.446,7.271,7.271,0,0,0-3.679-6.251c2.3-13.3,9.875-22.384,22.547-27A55.769,55.769,0,0,1,65.363,25.79a3.55,3.55,0,0,0,.548-7.08A62.094,62.094,0,0,0,42.5,22.12,45.135,45.135,0,0,0,29.743,29.1L19.75,25.687,73.035,7.308l60.709,21.148L71.877,47l-29.4-10.587A3.551,3.551,0,0,0,40.068,43.1l30.5,10.983a3.551,3.551,0,0,0,2.222.06l73.488-22.03a3.55,3.55,0,0,0,.148-6.753" transform="translate(0 0)" fill="#00ae83"/>
        <path id="Path_1133" data-name="Path 1133" d="M168.776,140.615a3.55,3.55,0,0,0-3.55,3.55v8.266c0,10.345,0,17.82-39.748,17.82-17.283,0-27.434-1.392-31.948-4.38-3.139-2.079-3.279-4.959-3.279-10.759v-10.1a3.55,3.55,0,0,0-7.1,0v10.1c0,6.1,0,12.4,6.459,16.679,5.886,3.9,16.613,5.561,35.868,5.561,19.5,0,31.213-1.789,37.979-5.8,7.795-4.623,8.869-11.921,8.869-19.119v-8.266a3.55,3.55,0,0,0-3.55-3.55" transform="translate(-53.63 -90.693)" fill="#00ae83"/>
      </g>
    </g>
    <g transform="matrix(1, 0, 0, 1, 814, 4534)" filter="url(#Ellipse_47)">
      <circle id="Ellipse_47-2" data-name="Ellipse 47" cx="43" cy="43" r="43" transform="translate(9 6)" fill="#fff"/>
    </g>
    <text id="_2" data-name="2" transform="translate(866 4595)" fill="#00644b" font-size="33" font-family="Poppins-Bold, Poppins" font-weight="700"><tspan x="-9.422" y="0">2</tspan></text>
  </g>
</svg>
