<svg xmlns="http://www.w3.org/2000/svg" width="101.638" height="104.5"><defs><clipPath id="clip-path"><path id="Rectangle_172" data-name="Rectangle 172" fill="none" d="M0 0h101.638v104.5H0z"/></clipPath></defs><g id="Group_107" data-name="Group 107" clip-path="url('#clip-path')" fill="#fff"><path id="Path_1123" data-name="Path 1123" d="M193.35 212.872h-7.371a3.124 3.124 0 0 1-3.437-3.4 35.675 35.675 0 0 0-2.4-12.948 18.343 18.343 0 0 0-3.94-5.982 23.747 23.747 0 0 1-7.041-15.163 24.292 24.292 0 0 1 47.024-10.407c2.952 8.375 1.7 16.2-3.625 23.345a12.346 12.346 0 0 1-1.492 1.712c-3.441 3.176-5.1 7.257-6.03 11.719a41.618 41.618 0 0 0-.826 7.7 3.132 3.132 0 0 1-3.493 3.419h-7.371m4.12-12.973c0 2.353-.012 4.706 0 7.058.013 2.013-.29 1.735 1.805 1.783.611.014.8-.205.836-.811a45.125 45.125 0 0 1 .933-7.3 26.177 26.177 0 0 1 5.222-11.525c1.183-1.413 2.62-2.618 3.663-4.147a20.019 20.019 0 0 0 3.408-14.528 20.172 20.172 0 1 0-39.91 5.9 19.809 19.809 0 0 0 6.014 11.623 19.857 19.857 0 0 1 3.811 5.428 37.439 37.439 0 0 1 3.373 13.85c.123 1.505.121 1.465 1.647 1.512.79.024 1.034-.222 1.028-1.02-.033-4.862-.017-9.724-.017-14.586 0-1.983 0-1.983-1.985-2.073a4.982 4.982 0 1 1 4.961-6.446 8.056 8.056 0 0 1 .194 2.308c-.022.679.148.99.911.984.731-.006 1-.253.927-.962a7.721 7.721 0 0 1 0-1.019 5.068 5.068 0 0 1 3.83-4.7 5.149 5.149 0 0 1 5.382 2.2 5.022 5.022 0 0 1-4.453 7.642c-1.748.008-1.573-.216-1.578 1.608-.007 2.4 0 4.81 0 7.215m-5-.005c0 2.662.021 5.325-.014 7.987-.01.728.293.862.935.868.669.006.915-.187.912-.889q-.036-7.948 0-15.9c0-.678-.2-.911-.893-.912s-.964.2-.954.933c.038 2.636.015 5.272.015 7.909m-4.478-12c1.3 0 1.3 0 1.295-1.262a5.416 5.416 0 0 0-.028-.778 1.782 1.782 0 0 0-3.545.156c-.071 1.221.727 1.881 2.279 1.884m10.75-.018a6.862 6.862 0 0 0 .705 0 1.69 1.69 0 0 0 1.6-1.632 1.657 1.657 0 0 0-1.349-1.829 1.726 1.726 0 0 0-2.23 1.724c-.072 1.774-.072 1.774 1.269 1.754" transform="translate(-142.557 -125.621)"/><path id="Path_1124" data-name="Path 1124" d="M268.928 571.329c-2.613 0-5.226.018-7.839-.007-1.514-.014-2.409-.829-2.406-2.1a1.945 1.945 0 0 1 1.628-2.006 6.132 6.132 0 0 1 1.168-.1q7.447-.009 14.894 0a6.031 6.031 0 0 1 1.244.112 1.943 1.943 0 0 1 1.554 1.989 1.972 1.972 0 0 1-1.553 2 5.976 5.976 0 0 1-1.244.11c-2.482.01-4.965 0-7.447 0Z" transform="translate(-218.108 -478.157)"/><path id="Path_1125" data-name="Path 1125" d="M289.467 603.11c1.41 0 2.82-.022 4.23.008a2.084 2.084 0 0 1 1.937 1.243 1.9 1.9 0 0 1-.23 2.065 1.811 1.811 0 0 1-1.146.763 6.093 6.093 0 0 1-1.087.118c-2.507.01-5.014.006-7.521.005-.131 0-.261 0-.391-.012a2.18 2.18 0 0 1-2.294-2.171 2.2 2.2 0 0 1 2.351-2.027c.7-.024 1.41-.008 2.115-.008h2.037v.016" transform="translate(-238.579 -508.491)"/><path id="Path_1126" data-name="Path 1126" d="M398.75 0a3 3 0 0 1 2.908 4.458c-2.112 3.954-4.394 7.819-6.691 11.67a3.115 3.115 0 0 1-4.136 1.048 3.009 3.009 0 0 1-1.285-4.053c2.17-3.979 4.454-7.903 6.76-11.807A2.664 2.664 0 0 1 398.75 0" transform="translate(-328.146)"/><path id="Path_1127" data-name="Path 1127" d="M180.229.013a3.126 3.126 0 0 1 2.939 1.726c2.094 3.606 4.189 7.212 6.234 10.847 1.036 1.843.543 3.769-1.07 4.606-1.644.854-3.422.208-4.468-1.61-2.029-3.523-4.086-7.03-6.09-10.569-1.385-2.447-.127-4.96 2.454-5" transform="translate(-149.408 -.01)"/><path id="Path_1128" data-name="Path 1128" d="M9.769 219.692c2.037 0 4.074-.022 6.111.006 2.09.029 3.321 1.091 3.413 2.879.1 1.865-1.026 3.174-3.151 3.322a100.005 100.005 0 0 1-12.833.02c-2.259-.133-3.445-1.5-3.3-3.373.14-1.767 1.484-2.834 3.646-2.853 2.037-.018 4.074 0 6.111 0" transform="translate(0 -185.225)"/><path id="Path_1129" data-name="Path 1129" d="M534.5 219.675c2.089 0 4.177-.024 6.265.007 2.011.029 3.331 1.17 3.441 2.9a2.981 2.981 0 0 1-3.039 3.282 89.645 89.645 0 0 1-13.449-.023 2.945 2.945 0 0 1-2.8-3.322 3 3 0 0 1 3.156-2.828c2.14-.045 4.281-.01 6.422-.01Z" transform="translate(-442.58 -185.21)"/><path id="Path_1130" data-name="Path 1130" d="M307.8 643.2a10.551 10.551 0 0 1-1.257-.134 2.1 2.1 0 0 1-1.651-2.021 2.058 2.058 0 0 1 1.666-2 7.143 7.143 0 0 1 2.492-.031 2.064 2.064 0 0 1 1.832 2.018 2.029 2.029 0 0 1-1.772 2.063 12.6 12.6 0 0 1-1.31.106" transform="translate(-257.07 -538.704)"/></g></svg>