<svg xmlns="http://www.w3.org/2000/svg" xmlns:xlink="http://www.w3.org/1999/xlink" width="84.86" height="78.869" viewBox="0 0 84.86 78.869">
  <defs>
    <clipPath id="clip-path">
      <rect id="Rectangle_170" data-name="Rectangle 170" width="84.86" height="78.869" fill="#fff"></rect>
    </clipPath>
  </defs>
  <g id="Group_103" data-name="Group 103" clip-path="url('#clip-path')">
    <path id="Path_1119" data-name="Path 1119" d="M84.141,72.512c-6.25-6.4-12.743-6.767-17.091-5.946a20.883,20.883,0,0,0-6.527,2.459A56.483,56.483,0,0,0,38,62.522c.589-3.119,1.817-9,3.775-15.57,4.56-.427,16.306-2.436,23.777-11.875,6.306-7.968,7.917-19.1,4.787-33.1A2.529,2.529,0,0,0,67.518.025c-1.03.147-25.311,3.768-32.86,19.153-3.6,7.343-2.771,15.963,2.471,25.632-1.027,3.37-1.863,6.571-2.526,9.364q-.57-1.252-1.215-2.48c1.885-12.614-.246-21.985-6.344-27.858-9.291-8.949-24.1-6.1-24.726-5.977A2.528,2.528,0,0,0,.3,20.094C-.946,33,1.693,42.564,8.144,48.517c5.909,5.454,13.529,6.463,18.362,6.463,1.109,0,2.067-.053,2.828-.118a34.357,34.357,0,0,1,2.832,7.623,50.373,50.373,0,0,0-13.234,2.488A49.535,49.535,0,0,0,1.864,74.5a2.528,2.528,0,0,0,3.45,3.7A45.4,45.4,0,0,1,20.726,69.7c12.693-4.14,25.716-2.636,38.707,4.468a2.545,2.545,0,0,0,2.743-.205c.384-.289,9.509-6.978,18.347,2.077a2.528,2.528,0,1,0,3.618-3.532m-44.948-51.1C44.327,10.933,59.946,6.718,65.9,5.466c2.1,11.278.666,20.165-4.283,26.442-5.264,6.676-13.432,8.944-18.124,9.712,4.29-12.391,9.484-20.67,15.095-24.018a2.528,2.528,0,1,0-2.591-4.341C48.553,17.7,43.169,27.826,39.454,37.883,36.989,31.625,36.9,26.1,39.192,21.415M11.546,44.777C6.65,40.239,4.509,32.771,5.172,22.56c3.817-.389,12.66-.579,18.366,4.917,3.839,3.7,5.66,9.413,5.447,17.037A100.154,100.154,0,0,0,14.816,28.52a2.528,2.528,0,0,0-3.346,3.79A96.109,96.109,0,0,1,26.5,49.909c-3.987-.008-10.294-.808-14.958-5.132" transform="translate(0 0)" fill="#fff"></path>
  </g>
</svg>
