<svg xmlns="http://www.w3.org/2000/svg" xmlns:xlink="http://www.w3.org/1999/xlink" width="271" height="273" viewBox="0 0 271 273">
  <defs>
    <clipPath id="clip-path">
      <rect id="Rectangle_178" data-name="Rectangle 178" width="129.56" height="129.581" fill="#00ae83"></rect>
    </clipPath>
    <filter id="Ellipse_46" x="0" y="0" width="104" height="104" filterUnits="userSpaceOnUse">
      <feOffset dy="3" input="SourceAlpha"></feOffset>
      <feGaussianBlur stdDeviation="3" result="blur"></feGaussianBlur>
      <feFlood flood-opacity="0.161"></feFlood>
      <feComposite operator="in" in2="blur"></feComposite>
      <feComposite in="SourceGraphic"></feComposite>
    </filter>
  </defs>
  <g id="Group_155" data-name="Group 155" transform="translate(-372 -4534)">
    <circle id="Ellipse_43" data-name="Ellipse 43" cx="131" cy="131" r="131" transform="translate(381 4545)" fill="#dbdbdb"></circle>
    <g id="Group_113" data-name="Group 113" transform="translate(447.22 4611.554)">
      <g id="Group_112" data-name="Group 112" clip-path="url('#clip-path')">
        <path id="Path_1134" data-name="Path 1134" d="M105.1,129.58h-.028a11.725,11.725,0,0,1-8.337-3.476L68.635,98a20.743,20.743,0,0,1-4.72-21.877L40.555,52.761H25.4L0,18.89,18.89,0,52.761,25.4V40.555L76.123,63.916A20.688,20.688,0,0,1,98,68.632l23.2,23.2V91.8l4.918,4.942a11.87,11.87,0,0,1,0,16.709l-12.7,12.7a11.71,11.71,0,0,1-8.31,3.423M28.28,47.006H42.939L70.823,74.9l-.914,1.85a14.982,14.982,0,0,0,2.8,17.193l28.1,28.1a6.013,6.013,0,0,0,4.276,1.786h.014a6.008,6.008,0,0,0,4.266-1.761l.044-.044,12.63-12.63a6.1,6.1,0,0,0,.074-8.5L93.934,72.705A14.936,14.936,0,0,0,76.75,69.911L74.9,70.83,47.006,42.938V28.28L19.431,7.6,7.6,19.43ZM19.35,129.4A18.261,18.261,0,0,1,6.214,98.485l.038-.038,38.615-38.64L61.355,76.294V77.8l-.068.307a22.819,22.819,0,0,0,1.065,13.369l.7,1.758L32,124.272A18.184,18.184,0,0,1,19.35,129.4m-9.007-26.9a12.482,12.482,0,0,0,17.649,17.648L56.354,91.789a28.516,28.516,0,0,1-.99-13.346l-10.5-10.5Zm8.827,17.473h-.009a8.634,8.634,0,1,1,.009,0m-.009-11.522a2.883,2.883,0,1,0,2.883,2.875,2.887,2.887,0,0,0-2.883-2.875m86.233-35.132L99.358,67.28a22.522,22.522,0,0,0-15.868-6.6h-.068a23.308,23.308,0,0,0-5.276.62l-1.561.368L54.934,40.017l-.03-1.149A37.061,37.061,0,0,1,65.629,11.9a37.657,37.657,0,0,1,35.528-9.858A5.775,5.775,0,0,1,103.88,11.7L87.052,28.527l2.132,12.809,12.809,2.131L118.8,26.655a5.749,5.749,0,0,1,9.65,2.652A37.579,37.579,0,0,1,118.6,64.858a36.715,36.715,0,0,1-11.411,7.688Zm-21.9-18.388a28.31,28.31,0,0,1,19.942,8.289l3.229,3.229a30.962,30.962,0,0,0,7.876-5.668,31.794,31.794,0,0,0,8.334-30.069l-18.9,18.922L84.181,46.338,80.889,26.551,99.794,7.645A31.838,31.838,0,0,0,69.7,15.964a31.284,31.284,0,0,0-9.055,21.63L78.426,55.371a29.118,29.118,0,0,1,4.982-.444h.082" transform="translate(0 0.001)" fill="#00ae83"></path>
      </g>
    </g>
    <g transform="matrix(1, 0, 0, 1, 372, 4534)" filter="url('#Ellipse_46')">
      <circle id="Ellipse_46-2" data-name="Ellipse 46" cx="43" cy="43" r="43" transform="translate(9 6)" fill="#fff"></circle>
    </g>
    <text id="_1" data-name="1" transform="translate(424 4595)" fill="#00644b" font-size="33" font-family="Poppins-Bold, Poppins" font-weight="700"><tspan x="-6.204" y="0">1</tspan></text>
  </g>
</svg>
