<svg xmlns="http://www.w3.org/2000/svg" width="271" height="273"><defs><clipPath id="clip-path"><path id="Rectangle_178" data-name="Rectangle 178" fill="#00ae83" d="M0 0h129.56v129.581H0z"/></clipPath><filter id="Ellipse_46" x="0" y="0" width="104" height="104" filterUnits="userSpaceOnUse"><feOffset dy="3"/><feGaussianBlur stdDeviation="3" result="blur"/><feFlood flood-opacity=".161"/><feComposite operator="in" in2="blur"/><feComposite in="SourceGraphic"/></filter></defs><g id="Group_155" data-name="Group 155" transform="translate(-372 -4534)"><circle id="Ellipse_43" data-name="Ellipse 43" cx="131" cy="131" r="131" transform="translate(381 4545)" fill="#dbdbdb"/><g id="Group_113" data-name="Group 113" transform="translate(447.22 4611.554)"><g id="Group_112" data-name="Group 112" clip-path="url('#clip-path')"><path id="Path_1134" data-name="Path 1134" d="M105.1 129.58h-.028a11.725 11.725 0 0 1-8.337-3.476L68.635 98a20.743 20.743 0 0 1-4.72-21.877l-23.36-23.362H25.4L0 18.89 18.89 0l33.871 25.4v15.155l23.362 23.361A20.688 20.688 0 0 1 98 68.632l23.2 23.2V91.8l4.918 4.942a11.87 11.87 0 0 1 0 16.709l-12.7 12.7a11.71 11.71 0 0 1-8.31 3.423M28.28 47.006h14.659L70.823 74.9l-.914 1.85a14.982 14.982 0 0 0 2.8 17.193l28.1 28.1a6.013 6.013 0 0 0 4.276 1.786h.014a6.008 6.008 0 0 0 4.266-1.761l.044-.044 12.63-12.63a6.1 6.1 0 0 0 .074-8.5L93.934 72.705a14.936 14.936 0 0 0-17.184-2.794l-1.85.919-27.894-27.892V28.28L19.431 7.6 7.6 19.43ZM19.35 129.4A18.261 18.261 0 0 1 6.214 98.485l.038-.038 38.615-38.64 16.488 16.487V77.8l-.068.307a22.819 22.819 0 0 0 1.065 13.369l.7 1.758L32 124.272a18.184 18.184 0 0 1-12.65 5.128m-9.007-26.9a12.482 12.482 0 0 0 17.649 17.648l28.362-28.359a28.516 28.516 0 0 1-.99-13.346l-10.5-10.5Zm8.827 17.473h-.009a8.634 8.634 0 1 1 .009 0m-.009-11.522a2.883 2.883 0 1 0 2.883 2.875 2.887 2.887 0 0 0-2.883-2.875m86.233-35.132-6.036-6.039a22.522 22.522 0 0 0-15.868-6.6h-.068a23.308 23.308 0 0 0-5.276.62l-1.561.368-21.651-21.651-.03-1.149A37.061 37.061 0 0 1 65.629 11.9a37.657 37.657 0 0 1 35.528-9.858 5.775 5.775 0 0 1 2.723 9.658L87.052 28.527l2.132 12.809 12.809 2.131L118.8 26.655a5.749 5.749 0 0 1 9.65 2.652 37.579 37.579 0 0 1-9.85 35.551 36.715 36.715 0 0 1-11.411 7.688Zm-21.9-18.388a28.31 28.31 0 0 1 19.942 8.289l3.229 3.229a30.962 30.962 0 0 0 7.876-5.668 31.794 31.794 0 0 0 8.334-30.069l-18.9 18.922-19.794-3.296-3.292-19.787L99.794 7.645A31.838 31.838 0 0 0 69.7 15.964a31.284 31.284 0 0 0-9.055 21.63l17.781 17.777a29.118 29.118 0 0 1 4.982-.444h.082" transform="translate(0 .001)" fill="#00ae83"/></g></g><g transform="translate(372 4534)" filter="url('#Ellipse_46')"><circle id="Ellipse_46-2" data-name="Ellipse 46" cx="43" cy="43" r="43" transform="translate(9 6)" fill="#fff"/></g><text id="_1" data-name="1" transform="translate(424 4595)" fill="#00644b" font-size="33" font-family="Poppins-Bold, Poppins" font-weight="700"><tspan x="-6.204" y="0">1</tspan></text></g></svg>