<svg id="Positive_Staff_Icon" data-name="Positive Staff Icon" xmlns="http://www.w3.org/2000/svg" width="82.505" height="106.305"><defs><clipPath id="clip-path"><path id="Rectangle_171" data-name="Rectangle 171" fill="none" d="M0 0h82.505v106.305H0z"/></clipPath></defs><g id="Group_105" data-name="Group 105" clip-path="url('#clip-path')" fill="#fff"><path id="Path_1120" data-name="Path 1120" d="M91.439 42.879A21.439 21.439 0 1 0 70 21.439a21.463 21.463 0 0 0 21.439 21.44m0-37.627a16.188 16.188 0 1 1-16.187 16.187A16.206 16.206 0 0 1 91.439 5.252" transform="translate(-51.619)"/><path id="Path_1121" data-name="Path 1121" d="M78.911 195.826a2.622 2.622 0 0 0 .081-.638v-11.757A14.753 14.753 0 0 0 64.256 168.7h-7.489a2.626 2.626 0 0 0-1.573.523 25.71 25.71 0 0 1-30.748 0 2.625 2.625 0 0 0-1.572-.523h-7.057a2.6 2.6 0 0 0-.331.021 13.739 13.739 0 0 0-.75-.021A14.753 14.753 0 0 0 0 183.431v11.757a2.626 2.626 0 0 0 5.252 0v-11.757a9.495 9.495 0 0 1 9.484-9.484c.263 0 .541.013.85.041a2.6 2.6 0 0 0 .745-.041h5.691a30.967 30.967 0 0 0 35.6 0h6.637a9.495 9.495 0 0 1 9.484 9.484v6.739a22.679 22.679 0 1 0 5.17 5.657M59.85 225.452a17.4 17.4 0 1 1 17.4-17.4 17.423 17.423 0 0 1-17.4 17.4" transform="translate(0 -124.398)"/><path id="Path_1122" data-name="Path 1122" d="M205.7 284.065h-6.315v-6.315a2.533 2.533 0 0 0-5.067 0v6.315H188a2.533 2.533 0 1 0 0 5.067h6.315v6.315a2.533 2.533 0 1 0 5.067 0v-6.315h6.318a2.533 2.533 0 1 0 0-5.067" transform="translate(-136.764 -202.948)"/></g></svg>