<svg xmlns="http://www.w3.org/2000/svg" width="271" height="273"><defs><clipPath id="clip-path"><path id="Rectangle_180" data-name="Rectangle 180" fill="#00ae83" d="M0 0h124.812v124.811H0z"/></clipPath><filter id="Ellipse_48" x="0" y="0" width="104" height="104" filterUnits="userSpaceOnUse"><feOffset dy="3"/><feGaussianBlur stdDeviation="3" result="blur"/><feFlood flood-opacity=".161"/><feComposite operator="in" in2="blur"/><feComposite in="SourceGraphic"/></filter></defs><g id="Group_153" data-name="Group 153" transform="translate(-1268 -4534)"><circle id="Ellipse_45" data-name="Ellipse 45" cx="131" cy="131" r="131" transform="translate(1277 4545)" fill="#dbdbdb"/><g id="Group_117" data-name="Group 117" transform="translate(1345.594 4613.939)"><g id="Group_116" data-name="Group 116" clip-path="url('#clip-path')" fill="#00ae83"><path id="Path_1137" data-name="Path 1137" d="M123.876 93.96a22.487 22.487 0 0 0-10.761-4.895V77.578a24.165 24.165 0 0 1 3.055.682 33.5 33.5 0 0 1 5.681 2.285 2.2 2.2 0 0 0 3.2-1.965v-6.331a2.2 2.2 0 0 0-1.551-2.1 55.726 55.726 0 0 0-6.288-1.562 52.746 52.746 0 0 0-4.063-.591l-.028-6.586a2.2 2.2 0 0 0-2.2-2.192h-3.66a2.2 2.2 0 0 0-2.2 2.2v6.621A18.876 18.876 0 0 0 94.942 72.3a13.8 13.8 0 0 0-4.6 10.815 13.459 13.459 0 0 0 4.424 10.456c2.441 2.2 5.9 3.767 10.288 4.67V110.8a24.178 24.178 0 0 1-4.455-1.008 31.826 31.826 0 0 1-6.895-3.254 2.2 2.2 0 0 0-3.362 1.871V115a2.2 2.2 0 0 0 1.352 2.031 46.9 46.9 0 0 0 7.623 2.457 44.972 44.972 0 0 0 5.708.926l.03 8.976a2.2 2.2 0 0 0 2.2 2.195h3.66a2.2 2.2 0 0 0 2.2-2.195l.03-9.078a18.94 18.94 0 0 0 10.407-4.468 14.207 14.207 0 0 0 5.007-11.055 13.946 13.946 0 0 0-4.683-10.824m-22.509-11.212a5.1 5.1 0 0 1 1.462-3.9 5.3 5.3 0 0 1 2.223-1.242v9.807a6.639 6.639 0 0 1-2.4-1.312 4.231 4.231 0 0 1-1.281-3.354M117.275 105a5.389 5.389 0 0 1-1.571 4.174 5.755 5.755 0 0 1-2.589 1.351V99.881a7.417 7.417 0 0 1 2.822 1.455 4.7 4.7 0 0 1 1.338 3.664" transform="translate(-47.044 -30.836)"/><path id="Path_1138" data-name="Path 1138" d="M62.406 124.811a62.406 62.406 0 1 1 62.406-62.406 62.476 62.476 0 0 1-62.406 62.406m0-115.226a52.82 52.82 0 1 0 52.82 52.82 52.881 52.881 0 0 0-52.82-52.82"/></g></g><g transform="translate(1268 4534)" filter="url('#Ellipse_48')"><circle id="Ellipse_48-2" data-name="Ellipse 48" cx="43" cy="43" r="43" transform="translate(9 6)" fill="#fff"/></g><text id="_3" data-name="3" transform="translate(1320 4595)" fill="#00644b" font-size="33" font-family="Poppins-Bold, Poppins" font-weight="700"><tspan x="-9.983" y="0">3</tspan></text></g></svg>